# xmcd
#
# Track frame offsets:
#	150
#	13415
#	23665
#	37255
#	50452
#	64155
#	78695
#	92425
#	104505
#	116322
#	130112
#	143077
#	155705
#	167900
#	180610
#	193252
#
# Disc length: 2740 seconds
#
# Revision: 3200078382
# Processed by: cddbd v1.5.2PL0 Copyright (c) Steve Scherf et al.
# Submitted via: EZCDAudioConverter 2.2.2.1
#
DISCID=e00ab210
DTITLE=Varios - B-004 Blues Legends
DYEAR=1900
DGENRE=
TTITLE0=Bessie smith - Baby Won't You Please Come Home
TTITLE1=Robert Johnson - Milkcow's Calf Blues
TTITLE2=Blind Lemon Jefferson - Match Box Blues
TTITLE3=Mississippi John Hurt - Ain't No Telling
TTITLE4=Blind Willie Johnson - Lord, I Just Can't Keep From Crying
TTITLE5=Lonnis Johnson - Low Down St. Louis Blues
TTITLE6=Leroy Carr - Stormy Night Blues
TTITLE7=Josh White - I Believe I'll Make A Change
TTITLE8=Lead Belly - C.C. Rider
TTITLE9=Blind Boy Fuller - Truckin' My Blues Away
TTITLE10=Big Bill Broonzy - Spreadin' Snakes Blues
TTITLE11=Memphis Minnie - Nothin' In Ramblin'
TTITLE12=Tampa Red - You Can't Get That Stuff No More
TTITLE13=Charley Patton - High Sheriff Blues
TTITLE14=Bukka White - Fixing To Die Blues
TTITLE15=Josh White - I Believe I'll Make A Change
EXTD=
EXTT0=
EXTT1=
EXTT2=
EXTT3=
EXTT4=
EXTT5=
EXTT6=
EXTT7=
EXTT8=
EXTT9=
EXTT10=
EXTT11=
EXTT12=
EXTT13=
EXTT14=
EXTT15=
PLAYORDER=
